<svg width="788" height="236" viewBox="0 0 788 236" fill="none" xmlns="http://www.w3.org/2000/svg">
<g filter="url(#filter0_di_15_53)">
<path d="M8 60.5C8 39.4331 8 28.8996 13.0559 21.3329C15.2447 18.0572 18.0572 15.2447 21.3329 13.0559C28.8996 8 39.4331 8 60.5 8C81.5669 8 92.1004 8 99.6671 13.0559C102.943 15.2447 105.755 18.0572 107.944 21.3329C113 28.8996 113 39.4331 113 60.5L113 98C113 105.071 113 108.607 110.803 110.803C108.607 113 105.071 113 98 113L60.5 113C39.4331 113 28.8996 113 21.3329 107.944C18.0572 105.755 15.2447 102.943 13.0559 99.6671C8 92.1004 8 81.5669 8 60.5Z" fill="url(#paint0_linear_15_53)"/>
</g>
<g filter="url(#filter1_di_15_53)">
<path d="M123 60.5C123 39.4331 123 28.8996 128.056 21.3329C130.245 18.0572 133.057 15.2447 136.333 13.0559C143.9 8 154.433 8 175.5 8C196.567 8 207.1 8 214.667 13.0559C217.943 15.2447 220.755 18.0572 222.944 21.3329C228 28.8996 228 39.4331 228 60.5C228 81.5669 228 92.1004 222.944 99.6671C220.755 102.943 217.943 105.755 214.667 107.944C207.1 113 196.567 113 175.5 113L138 113C130.929 113 127.393 113 125.197 110.803C123 108.607 123 105.071 123 98L123 60.5Z" fill="url(#paint1_linear_15_53)"/>
</g>
<g filter="url(#filter2_di_15_53)">
<path d="M123 138C123 130.929 123 127.393 125.197 125.197C127.393 123 130.929 123 138 123L175.5 123C196.567 123 207.1 123 214.667 128.056C217.943 130.245 220.755 133.057 222.944 136.333C228 143.9 228 154.433 228 175.5C228 196.567 228 207.1 222.944 214.667C220.755 217.943 217.943 220.755 214.667 222.944C207.1 228 196.567 228 175.5 228C154.433 228 143.9 228 136.333 222.944C133.057 220.755 130.245 217.943 128.056 214.667C123 207.1 123 196.567 123 175.5L123 138Z" fill="url(#paint2_linear_15_53)"/>
</g>
<g filter="url(#filter3_di_15_53)">
<path d="M8 175.5C8 154.433 8 143.9 13.0559 136.333C15.2447 133.057 18.0572 130.245 21.3329 128.056C28.8996 123 39.4331 123 60.5 123L98 123C105.071 123 108.607 123 110.803 125.197C113 127.393 113 130.929 113 138L113 175.5C113 196.567 113 207.1 107.944 214.667C105.755 217.943 102.943 220.755 99.6671 222.944C92.1004 228 81.5669 228 60.5 228C39.4331 228 28.8996 228 21.3329 222.944C18.0572 220.755 15.2447 217.943 13.0559 214.667C8 207.1 8 196.567 8 175.5Z" fill="url(#paint3_linear_15_53)"/>
</g>
<path d="M260.398 89V54.6406H270.781L277.016 78.0781L283.18 54.6406H293.586V89H287.141V61.9531L280.32 89H273.641L266.844 61.9531V89H260.398ZM298.03 60.7344V54.6406H304.616V60.7344H298.03ZM298.03 89V64.1094H304.616V89H298.03ZM330.692 71.4688L324.2 72.6406C323.981 71.3438 323.481 70.3672 322.7 69.7109C321.934 69.0547 320.934 68.7266 319.7 68.7266C318.059 68.7266 316.747 69.2969 315.763 70.4375C314.794 71.5625 314.309 73.4531 314.309 76.1094C314.309 79.0625 314.802 81.1484 315.786 82.3672C316.786 83.5859 318.122 84.1953 319.794 84.1953C321.044 84.1953 322.067 83.8438 322.864 83.1406C323.661 82.4219 324.223 81.1953 324.552 79.4609L331.02 80.5625C330.348 83.5312 329.059 85.7734 327.153 87.2891C325.247 88.8047 322.692 89.5625 319.489 89.5625C315.848 89.5625 312.942 88.4141 310.77 86.1172C308.614 83.8203 307.536 80.6406 307.536 76.5781C307.536 72.4688 308.622 69.2734 310.794 66.9922C312.966 64.6953 315.903 63.5469 319.606 63.5469C322.638 63.5469 325.044 64.2031 326.825 65.5156C328.622 66.8125 329.911 68.7969 330.692 71.4688ZM339.613 89H333.027V64.1094H339.144V67.6484C340.191 65.9766 341.128 64.875 341.956 64.3438C342.8 63.8125 343.753 63.5469 344.816 63.5469C346.316 63.5469 347.761 63.9609 349.152 64.7891L347.113 70.5312C346.003 69.8125 344.972 69.4531 344.019 69.4531C343.097 69.4531 342.316 69.7109 341.675 70.2266C341.034 70.7266 340.527 71.6406 340.152 72.9688C339.792 74.2969 339.613 77.0781 339.613 81.3125V89ZM348.088 76.2031C348.088 74.0156 348.627 71.8984 349.705 69.8516C350.783 67.8047 352.306 66.2422 354.275 65.1641C356.259 64.0859 358.47 63.5469 360.908 63.5469C364.673 63.5469 367.759 64.7734 370.166 67.2266C372.572 69.6641 373.775 72.75 373.775 76.4844C373.775 80.25 372.556 83.375 370.119 85.8594C367.697 88.3281 364.642 89.5625 360.955 89.5625C358.673 89.5625 356.494 89.0469 354.416 88.0156C352.353 86.9844 350.783 85.4766 349.705 83.4922C348.627 81.4922 348.088 79.0625 348.088 76.2031ZM354.838 76.5547C354.838 79.0234 355.423 80.9141 356.595 82.2266C357.767 83.5391 359.213 84.1953 360.931 84.1953C362.65 84.1953 364.088 83.5391 365.244 82.2266C366.416 80.9141 367.002 79.0078 367.002 76.5078C367.002 74.0703 366.416 72.1953 365.244 70.8828C364.088 69.5703 362.65 68.9141 360.931 68.9141C359.213 68.9141 357.767 69.5703 356.595 70.8828C355.423 72.1953 354.838 74.0859 354.838 76.5547ZM374.234 81.8984L380.844 80.8906C381.125 82.1719 381.695 83.1484 382.555 83.8203C383.414 84.4766 384.617 84.8047 386.164 84.8047C387.867 84.8047 389.148 84.4922 390.008 83.8672C390.586 83.4297 390.875 82.8438 390.875 82.1094C390.875 81.6094 390.719 81.1953 390.406 80.8672C390.078 80.5547 389.344 80.2656 388.203 80C382.891 78.8281 379.523 77.7578 378.102 76.7891C376.133 75.4453 375.148 73.5781 375.148 71.1875C375.148 69.0312 376 67.2188 377.703 65.75C379.406 64.2812 382.047 63.5469 385.625 63.5469C389.031 63.5469 391.562 64.1016 393.219 65.2109C394.875 66.3203 396.016 67.9609 396.641 70.1328L390.43 71.2812C390.164 70.3125 389.656 69.5703 388.906 69.0547C388.172 68.5391 387.117 68.2812 385.742 68.2812C384.008 68.2812 382.766 68.5234 382.016 69.0078C381.516 69.3516 381.266 69.7969 381.266 70.3438C381.266 70.8125 381.484 71.2109 381.922 71.5391C382.516 71.9766 384.562 72.5938 388.062 73.3906C391.578 74.1875 394.031 75.1641 395.422 76.3203C396.797 77.4922 397.484 79.125 397.484 81.2188C397.484 83.5 396.531 85.4609 394.625 87.1016C392.719 88.7422 389.898 89.5625 386.164 89.5625C382.773 89.5625 380.086 88.875 378.102 87.5C376.133 86.125 374.844 84.2578 374.234 81.8984ZM399.35 76.2031C399.35 74.0156 399.889 71.8984 400.967 69.8516C402.045 67.8047 403.569 66.2422 405.538 65.1641C407.522 64.0859 409.733 63.5469 412.17 63.5469C415.936 63.5469 419.022 64.7734 421.428 67.2266C423.834 69.6641 425.038 72.75 425.038 76.4844C425.038 80.25 423.819 83.375 421.381 85.8594C418.959 88.3281 415.905 89.5625 412.217 89.5625C409.936 89.5625 407.756 89.0469 405.678 88.0156C403.616 86.9844 402.045 85.4766 400.967 83.4922C399.889 81.4922 399.35 79.0625 399.35 76.2031ZM406.1 76.5547C406.1 79.0234 406.686 80.9141 407.858 82.2266C409.03 83.5391 410.475 84.1953 412.194 84.1953C413.913 84.1953 415.35 83.5391 416.506 82.2266C417.678 80.9141 418.264 79.0078 418.264 76.5078C418.264 74.0703 417.678 72.1953 416.506 70.8828C415.35 69.5703 413.913 68.9141 412.194 68.9141C410.475 68.9141 409.03 69.5703 407.858 70.8828C406.686 72.1953 406.1 74.0859 406.1 76.5547ZM424.934 64.1094H428.591V62.2344C428.591 60.1406 428.809 58.5781 429.247 57.5469C429.7 56.5156 430.52 55.6797 431.708 55.0391C432.911 54.3828 434.427 54.0547 436.255 54.0547C438.13 54.0547 439.966 54.3359 441.762 54.8984L440.872 59.4922C439.825 59.2422 438.817 59.1172 437.848 59.1172C436.895 59.1172 436.208 59.3438 435.786 59.7969C435.38 60.2344 435.177 61.0859 435.177 62.3516V64.1094H440.098V69.2891H435.177V89H428.591V69.2891H424.934V64.1094ZM452.816 64.1094V69.3594H448.316V79.3906C448.316 81.4219 448.355 82.6094 448.433 82.9531C448.527 83.2812 448.722 83.5547 449.019 83.7734C449.331 83.9922 449.706 84.1016 450.144 84.1016C450.753 84.1016 451.636 83.8906 452.792 83.4688L453.355 88.5781C451.823 89.2344 450.089 89.5625 448.152 89.5625C446.964 89.5625 445.894 89.3672 444.941 88.9766C443.988 88.5703 443.284 88.0547 442.831 87.4297C442.394 86.7891 442.089 85.9297 441.917 84.8516C441.777 84.0859 441.706 82.5391 441.706 80.2109V69.3594H438.683V64.1094H441.706V59.1641L448.316 55.3203V64.1094H452.816Z" fill="#686868"/>
<path d="M260.953 102.281H281.109L288.375 140.672L298.969 102.281H319.078L329.719 140.672L336.984 102.281H357.047L341.906 171H321.094L309.047 127.734L297.047 171H276.234L260.953 102.281ZM356.576 102.281H375.654V115.266H356.576V102.281ZM356.576 121.219H375.654V171H356.576V121.219ZM377.762 121.219H395.527V129.328C398.184 126.016 400.871 123.656 403.59 122.25C406.309 120.812 409.621 120.094 413.527 120.094C418.809 120.094 422.934 121.672 425.902 124.828C428.902 127.953 430.402 132.797 430.402 139.359V171H411.231V143.625C411.231 140.5 410.652 138.297 409.496 137.016C408.34 135.703 406.715 135.047 404.621 135.047C402.309 135.047 400.434 135.922 398.996 137.672C397.559 139.422 396.84 142.562 396.84 147.094V171H377.762V121.219ZM484.119 102.281V171H466.26V163.641C463.76 166.766 461.479 168.875 459.416 169.969C456.666 171.406 453.604 172.125 450.229 172.125C443.447 172.125 438.26 169.547 434.666 164.391C431.104 159.234 429.322 152.969 429.322 145.594C429.322 137.344 431.291 131.031 435.229 126.656C439.197 122.281 444.229 120.094 450.322 120.094C453.291 120.094 455.979 120.594 458.385 121.594C460.822 122.594 462.979 124.094 464.854 126.094V102.281H484.119ZM464.994 145.969C464.994 142.062 464.166 139.156 462.51 137.25C460.854 135.312 458.76 134.344 456.229 134.344C454.01 134.344 452.151 135.266 450.651 137.109C449.151 138.953 448.401 142.047 448.401 146.391C448.401 150.453 449.166 153.438 450.697 155.344C452.26 157.219 454.182 158.156 456.463 158.156C458.901 158.156 460.932 157.203 462.557 155.297C464.182 153.391 464.994 150.281 464.994 145.969ZM483.321 146.25C483.321 138.656 485.883 132.406 491.008 127.5C496.133 122.562 503.055 120.094 511.774 120.094C521.742 120.094 529.274 122.984 534.367 128.766C538.461 133.422 540.508 139.156 540.508 145.969C540.508 153.625 537.961 159.906 532.867 164.812C527.805 169.688 520.789 172.125 511.821 172.125C503.821 172.125 497.352 170.094 492.414 166.031C486.352 161 483.321 154.406 483.321 146.25ZM502.446 146.203C502.446 150.641 503.336 153.922 505.117 156.047C506.93 158.172 509.196 159.234 511.914 159.234C514.664 159.234 516.914 158.188 518.664 156.094C520.446 154 521.336 150.641 521.336 146.016C521.336 141.703 520.446 138.5 518.664 136.406C516.883 134.281 514.68 133.219 512.055 133.219C509.274 133.219 506.977 134.297 505.164 136.453C503.352 138.578 502.446 141.828 502.446 146.203ZM532.209 121.219H550.678L558.694 152.578L568.819 121.219H586.022L596.522 152.578L604.538 121.219H622.866L604.538 171H587.569L577.491 141.047L567.741 171H550.678L532.209 121.219ZM615.036 157.219L633.973 155.438C634.754 157.688 635.848 159.297 637.254 160.266C638.661 161.234 640.536 161.719 642.879 161.719C645.442 161.719 647.426 161.172 648.832 160.078C649.926 159.266 650.473 158.25 650.473 157.031C650.473 155.656 649.754 154.594 648.317 153.844C647.286 153.312 644.551 152.656 640.114 151.875C633.489 150.719 628.879 149.656 626.286 148.688C623.723 147.688 621.551 146.016 619.77 143.672C618.02 141.328 617.145 138.656 617.145 135.656C617.145 132.375 618.098 129.547 620.004 127.172C621.911 124.797 624.536 123.031 627.879 121.875C631.223 120.688 635.707 120.094 641.332 120.094C647.27 120.094 651.645 120.547 654.457 121.453C657.301 122.359 659.661 123.766 661.536 125.672C663.442 127.578 665.02 130.156 666.27 133.406L648.176 135.188C647.707 133.594 646.926 132.422 645.832 131.672C644.332 130.672 642.52 130.172 640.395 130.172C638.239 130.172 636.661 130.562 635.661 131.344C634.692 132.094 634.207 133.016 634.207 134.109C634.207 135.328 634.832 136.25 636.082 136.875C637.332 137.5 640.051 138.062 644.239 138.562C650.582 139.281 655.301 140.281 658.395 141.562C661.489 142.844 663.848 144.672 665.473 147.047C667.129 149.422 667.957 152.031 667.957 154.875C667.957 157.75 667.082 160.547 665.332 163.266C663.614 165.984 660.879 168.156 657.129 169.781C653.411 171.375 648.332 172.172 641.895 172.172C632.801 172.172 626.317 170.875 622.442 168.281C618.598 165.688 616.129 162 615.036 157.219ZM687.219 137.109C687.219 128.984 688.047 122.453 689.704 117.516C691.391 112.547 693.876 108.719 697.157 106.031C700.469 103.344 704.626 102 709.626 102C713.313 102 716.547 102.75 719.329 104.25C722.11 105.719 724.407 107.859 726.219 110.672C728.032 113.453 729.454 116.859 730.485 120.891C731.516 124.891 732.032 130.297 732.032 137.109C732.032 145.172 731.204 151.688 729.547 156.656C727.891 161.594 725.407 165.422 722.094 168.141C718.813 170.828 714.657 172.172 709.626 172.172C703.001 172.172 697.797 169.797 694.016 165.047C689.485 159.328 687.219 150.016 687.219 137.109ZM695.891 137.109C695.891 148.391 697.204 155.906 699.829 159.656C702.485 163.375 705.751 165.234 709.626 165.234C713.501 165.234 716.751 163.359 719.376 159.609C722.032 155.859 723.36 148.359 723.36 137.109C723.36 125.797 722.032 118.281 719.376 114.562C716.751 110.844 713.469 108.984 709.532 108.984C705.657 108.984 702.563 110.625 700.251 113.906C697.344 118.094 695.891 125.828 695.891 137.109ZM739.522 155.109L747.632 154.359C748.319 158.172 749.632 160.938 751.569 162.656C753.507 164.375 755.991 165.234 759.022 165.234C761.616 165.234 763.882 164.641 765.819 163.453C767.788 162.266 769.397 160.688 770.647 158.719C771.897 156.719 772.944 154.031 773.788 150.656C774.632 147.281 775.054 143.844 775.054 140.344C775.054 139.969 775.038 139.406 775.007 138.656C773.319 141.344 771.007 143.531 768.069 145.219C765.163 146.875 762.007 147.703 758.601 147.703C752.913 147.703 748.101 145.641 744.163 141.516C740.226 137.391 738.257 131.953 738.257 125.203C738.257 118.234 740.304 112.625 744.397 108.375C748.522 104.125 753.679 102 759.866 102C764.335 102 768.413 103.203 772.101 105.609C775.819 108.016 778.632 111.453 780.538 115.922C782.476 120.359 783.444 126.797 783.444 135.234C783.444 144.016 782.491 151.016 780.585 156.234C778.679 161.422 775.835 165.375 772.054 168.094C768.304 170.812 763.897 172.172 758.835 172.172C753.46 172.172 749.069 170.688 745.663 167.719C742.257 164.719 740.21 160.516 739.522 155.109ZM774.069 124.781C774.069 119.938 772.772 116.094 770.179 113.25C767.616 110.406 764.522 108.984 760.897 108.984C757.147 108.984 753.882 110.516 751.101 113.578C748.319 116.641 746.929 120.609 746.929 125.484C746.929 129.859 748.241 133.422 750.866 136.172C753.522 138.891 756.788 140.25 760.663 140.25C764.569 140.25 767.772 138.891 770.272 136.172C772.804 133.422 774.069 129.625 774.069 124.781Z" fill="url(#paint4_linear_15_53)"/>
<defs>
<filter id="filter0_di_15_53" x="0" y="0" width="121" height="121" filterUnits="userSpaceOnUse" color-interpolation-filters="sRGB">
<feFlood flood-opacity="0" result="BackgroundImageFix"/>
<feColorMatrix in="SourceAlpha" type="matrix" values="0 0 0 0 0 0 0 0 0 0 0 0 0 0 0 0 0 0 127 0" result="hardAlpha"/>
<feOffset/>
<feGaussianBlur stdDeviation="4"/>
<feComposite in2="hardAlpha" operator="out"/>
<feColorMatrix type="matrix" values="0 0 0 0 0.14 0 0 0 0 1 0 0 0 0 0 0 0 0 0.75 0"/>
<feBlend mode="normal" in2="BackgroundImageFix" result="effect1_dropShadow_15_53"/>
<feBlend mode="normal" in="SourceGraphic" in2="effect1_dropShadow_15_53" result="shape"/>
<feColorMatrix in="SourceAlpha" type="matrix" values="0 0 0 0 0 0 0 0 0 0 0 0 0 0 0 0 0 0 127 0" result="hardAlpha"/>
<feMorphology radius="6" operator="dilate" in="SourceAlpha" result="effect2_innerShadow_15_53"/>
<feOffset dx="4" dy="4"/>
<feGaussianBlur stdDeviation="8"/>
<feComposite in2="hardAlpha" operator="arithmetic" k2="-1" k3="1"/>
<feColorMatrix type="matrix" values="0 0 0 0 0 0 0 0 0 0 0 0 0 0 0 0 0 0 0.25 0"/>
<feBlend mode="normal" in2="shape" result="effect2_innerShadow_15_53"/>
</filter>
<filter id="filter1_di_15_53" x="115" y="0" width="121" height="121" filterUnits="userSpaceOnUse" color-interpolation-filters="sRGB">
<feFlood flood-opacity="0" result="BackgroundImageFix"/>
<feColorMatrix in="SourceAlpha" type="matrix" values="0 0 0 0 0 0 0 0 0 0 0 0 0 0 0 0 0 0 127 0" result="hardAlpha"/>
<feOffset/>
<feGaussianBlur stdDeviation="4"/>
<feComposite in2="hardAlpha" operator="out"/>
<feColorMatrix type="matrix" values="0 0 0 0 0.9625 0 0 0 0 0.296771 0 0 0 0 0.296771 0 0 0 0.75 0"/>
<feBlend mode="normal" in2="BackgroundImageFix" result="effect1_dropShadow_15_53"/>
<feBlend mode="normal" in="SourceGraphic" in2="effect1_dropShadow_15_53" result="shape"/>
<feColorMatrix in="SourceAlpha" type="matrix" values="0 0 0 0 0 0 0 0 0 0 0 0 0 0 0 0 0 0 127 0" result="hardAlpha"/>
<feMorphology radius="6" operator="dilate" in="SourceAlpha" result="effect2_innerShadow_15_53"/>
<feOffset dx="-4" dy="4"/>
<feGaussianBlur stdDeviation="8"/>
<feComposite in2="hardAlpha" operator="arithmetic" k2="-1" k3="1"/>
<feColorMatrix type="matrix" values="0 0 0 0 0 0 0 0 0 0 0 0 0 0 0 0 0 0 0.25 0"/>
<feBlend mode="normal" in2="shape" result="effect2_innerShadow_15_53"/>
</filter>
<filter id="filter2_di_15_53" x="115" y="115" width="121" height="121" filterUnits="userSpaceOnUse" color-interpolation-filters="sRGB">
<feFlood flood-opacity="0" result="BackgroundImageFix"/>
<feColorMatrix in="SourceAlpha" type="matrix" values="0 0 0 0 0 0 0 0 0 0 0 0 0 0 0 0 0 0 127 0" result="hardAlpha"/>
<feOffset/>
<feGaussianBlur stdDeviation="4"/>
<feComposite in2="hardAlpha" operator="out"/>
<feColorMatrix type="matrix" values="0 0 0 0 0.209063 0 0 0 0 0.669929 0 0 0 0 0.929167 0 0 0 0.75 0"/>
<feBlend mode="normal" in2="BackgroundImageFix" result="effect1_dropShadow_15_53"/>
<feBlend mode="normal" in="SourceGraphic" in2="effect1_dropShadow_15_53" result="shape"/>
<feColorMatrix in="SourceAlpha" type="matrix" values="0 0 0 0 0 0 0 0 0 0 0 0 0 0 0 0 0 0 127 0" result="hardAlpha"/>
<feMorphology radius="6" operator="dilate" in="SourceAlpha" result="effect2_innerShadow_15_53"/>
<feOffset dx="-4" dy="-4"/>
<feGaussianBlur stdDeviation="8"/>
<feComposite in2="hardAlpha" operator="arithmetic" k2="-1" k3="1"/>
<feColorMatrix type="matrix" values="0 0 0 0 0 0 0 0 0 0 0 0 0 0 0 0 0 0 0.25 0"/>
<feBlend mode="normal" in2="shape" result="effect2_innerShadow_15_53"/>
</filter>
<filter id="filter3_di_15_53" x="0" y="115" width="121" height="121" filterUnits="userSpaceOnUse" color-interpolation-filters="sRGB">
<feFlood flood-opacity="0" result="BackgroundImageFix"/>
<feColorMatrix in="SourceAlpha" type="matrix" values="0 0 0 0 0 0 0 0 0 0 0 0 0 0 0 0 0 0 127 0" result="hardAlpha"/>
<feOffset/>
<feGaussianBlur stdDeviation="4"/>
<feComposite in2="hardAlpha" operator="out"/>
<feColorMatrix type="matrix" values="0 0 0 0 1 0 0 0 0 0.904167 0 0 0 0 0.0416667 0 0 0 0.75 0"/>
<feBlend mode="normal" in2="BackgroundImageFix" result="effect1_dropShadow_15_53"/>
<feBlend mode="normal" in="SourceGraphic" in2="effect1_dropShadow_15_53" result="shape"/>
<feColorMatrix in="SourceAlpha" type="matrix" values="0 0 0 0 0 0 0 0 0 0 0 0 0 0 0 0 0 0 127 0" result="hardAlpha"/>
<feMorphology radius="6" operator="dilate" in="SourceAlpha" result="effect2_innerShadow_15_53"/>
<feOffset dx="4" dy="-4"/>
<feGaussianBlur stdDeviation="8"/>
<feComposite in2="hardAlpha" operator="arithmetic" k2="-1" k3="1"/>
<feColorMatrix type="matrix" values="0 0 0 0 0 0 0 0 0 0 0 0 0 0 0 0 0 0 0.25 0"/>
<feBlend mode="normal" in2="shape" result="effect2_innerShadow_15_53"/>
</filter>
<linearGradient id="paint0_linear_15_53" x1="60.5" y1="8" x2="60.5" y2="113" gradientUnits="userSpaceOnUse">
<stop stop-color="#4BFF4B"/>
<stop offset="0.34375" stop-color="#7BEF7B"/>
<stop offset="0.6875" stop-color="#3EDD3E"/>
<stop offset="1" stop-color="#0BD30B"/>
</linearGradient>
<linearGradient id="paint1_linear_15_53" x1="175.5" y1="8" x2="175.5" y2="113" gradientUnits="userSpaceOnUse">
<stop stop-color="#FF4B4B"/>
<stop offset="0.296875" stop-color="#FF7070"/>
<stop offset="0.661458" stop-color="#DE1F1F"/>
<stop offset="1" stop-color="#CB0000"/>
</linearGradient>
<linearGradient id="paint2_linear_15_53" x1="175.5" y1="123" x2="175.5" y2="228" gradientUnits="userSpaceOnUse">
<stop stop-color="#4BC3FF"/>
<stop offset="0.348958" stop-color="#74D1FF"/>
<stop offset="0.697917" stop-color="#5EB3DD"/>
<stop offset="1" stop-color="#3680A5"/>
</linearGradient>
<linearGradient id="paint3_linear_15_53" x1="60.5" y1="123" x2="60.5" y2="228" gradientUnits="userSpaceOnUse">
<stop stop-color="#FFF34B"/>
<stop offset="0.328125" stop-color="#FFF78A"/>
<stop offset="0.682292" stop-color="#EFE227"/>
<stop offset="1" stop-color="#DECF00"/>
</linearGradient>
<linearGradient id="paint4_linear_15_53" x1="524.5" y1="66" x2="524.5" y2="201" gradientUnits="userSpaceOnUse">
<stop offset="0.177083" stop-color="#666666"/>
<stop offset="0.526042" stop-color="#6D6D6D"/>
<stop offset="0.619792" stop-color="#222222"/>
<stop offset="1"/>
</linearGradient>
</defs>
</svg>
